<mxfile host="app.diagrams.net" modified="2023-06-19T16:34:53.698Z" agent="Mozilla/5.0 (Windows NT 10.0; Win64; x64) AppleWebKit/537.36 (KHTML, like Gecko) Chrome/114.0.0.0 Safari/537.36" version="21.4.0" etag="qVzJseqtuTCN9j1ouSoa" type="github">
  <diagram name="Page-1" id="3K9nskQj2A4Jf4hr-c-X">
    <mxGraphModel>
      <root>
        <mxCell id="0" />
        <mxCell id="1" parent="0" />
      </root>
    </mxGraphModel>
  </diagram>
</mxfile>
